<svg width="180" height="36" viewBox="0 0 180 36" fill="none" xmlns="http://www.w3.org/2000/svg">
<path d="M18 1.61804L21.5657 12.5922L21.678 12.9377H22.0413H33.5802L24.245 19.7201L23.9511 19.9336L24.0634 20.2791L27.6291 31.2533L18.2939 24.4709L18 24.2574L17.7061 24.4709L8.37092 31.2533L11.9366 20.2791L12.0489 19.9336L11.755 19.7201L2.41983 12.9377H13.9587H14.322L14.4343 12.5922L18 1.61804Z" fill="#FFD093" stroke="#DE6A5B"/>
<path d="M54 1.61804L57.5657 12.5922L57.678 12.9377H58.0413H69.5802L60.245 19.7201L59.9511 19.9336L60.0634 20.2791L63.6291 31.2533L54.2939 24.4709L54 24.2574L53.7061 24.4709L44.3709 31.2533L47.9366 20.2791L48.0489 19.9336L47.755 19.7201L38.4198 12.9377H49.9587H50.322L50.4343 12.5922L54 1.61804Z" fill="#FFD093" stroke="#DE6A5B"/>
<path d="M90 1.61804L93.5657 12.5922L93.678 12.9377H94.0413H105.58L96.245 19.7201L95.9511 19.9336L96.0634 20.2791L99.6291 31.2533L90.2939 24.4709L90 24.2574L89.7061 24.4709L80.3709 31.2533L83.9366 20.2791L84.0489 19.9336L83.755 19.7201L74.4198 12.9377H85.9587H86.322L86.4343 12.5922L90 1.61804Z" fill="#FFD093" stroke="#DE6A5B"/>
<path d="M126 1.61804L129.566 12.5922L129.678 12.9377H130.041H141.58L132.245 19.7201L131.951 19.9336L132.063 20.2791L135.629 31.2533L126.294 24.4709L126 24.2574L125.706 24.4709L116.371 31.2533L119.937 20.2791L120.049 19.9336L119.755 19.7201L110.42 12.9377H121.959H122.322L122.434 12.5922L126 1.61804Z" fill="#FFD093" stroke="#DE6A5B"/>
<path d="M162 1.61804L165.566 12.5922L165.678 12.9377H166.041H177.58L168.245 19.7201L167.951 19.9336L168.063 20.2791L171.629 31.2533L162.294 24.4709L162 24.2574L161.706 24.4709L152.371 31.2533L155.937 20.2791L156.049 19.9336L155.755 19.7201L146.42 12.9377H157.959H158.322L158.434 12.5922L162 1.61804Z" fill="#FFD093" stroke="#DE6A5B"/>
</svg>
